<svg width="24" height="15" viewBox="0 0 24 15" fill="none" xmlns="http://www.w3.org/2000/svg">
<path d="M23.7504 1.52678C23.7504 1.52678 23.5785 1.03571 22.5105 1.17076L18.9747 1.19531C18.7047 1.15848 18.5082 1.26897 18.5082 1.26897C18.5082 1.26897 18.2995 1.37946 18.2013 1.64955C17.6243 3.13504 16.8877 4.41183 16.8877 4.41183C15.3163 7.08817 14.6779 7.23549 14.4201 7.06362C13.8185 6.68304 13.9781 5.51674 13.9781 4.68192C13.9781 2.07924 14.371 0.998883 13.2047 0.716517C12.8241 0.630579 12.5417 0.569196 11.5473 0.556919C10.2828 0.544642 9.2147 0.556919 8.61314 0.851562C8.20801 1.04799 7.90109 1.48995 8.08524 1.51451C8.3185 1.55134 8.8464 1.66183 9.12877 2.04241C9.12877 2.04241 9.43569 2.54576 9.48479 3.65067C9.61984 6.70759 8.99372 7.08817 8.99372 7.08817C8.51493 7.34598 7.68011 6.91629 6.45243 4.38728C6.45243 4.38728 5.74037 3.13504 5.18792 1.76004C5.0897 1.50223 4.89328 1.36719 4.89328 1.36719C4.89328 1.36719 4.67229 1.19531 4.3531 1.1462L0.989258 1.17076C0.473633 1.17076 0.289481 1.40402 0.289481 1.40402C0.289481 1.40402 0.105329 1.60045 0.277204 2.00558C2.90444 8.1808 5.89997 11.2746 5.89997 11.2746C5.89997 11.2746 8.6377 14.135 11.7437 13.9386H13.1556C13.5852 13.9018 13.8062 13.6685 13.8062 13.6685C13.8062 13.6685 14.0027 13.4475 13.9904 13.0424C13.9658 11.1518 14.8497 10.8694 14.8497 10.8694C15.7091 10.5993 16.814 12.6987 17.9926 13.5089C17.9926 13.5089 18.8888 14.1228 19.564 13.9877L22.7069 13.9386C24.3643 13.9263 23.5785 12.5513 23.5785 12.5513C23.5172 12.4408 23.1243 11.5937 21.2337 9.83817C19.2694 8.00893 19.5272 8.30357 21.9089 5.13616C23.3576 3.2087 23.9346 2.03013 23.7504 1.52678Z" fill="white"/>
</svg>
