<svg width="22" height="18" viewBox="0 0 22 18" fill="none" xmlns="http://www.w3.org/2000/svg">
<path d="M8.64132 12.0714C8.64132 11.1752 8.17481 9.71429 7.06989 9.71429C5.96498 9.71429 5.49847 11.1752 5.49847 12.0714C5.49847 12.9676 5.96498 14.4286 7.06989 14.4286C8.17481 14.4286 8.64132 12.9676 8.64132 12.0714ZM16.4985 12.0714C16.4985 11.1752 16.0319 9.71429 14.927 9.71429C13.8221 9.71429 13.3556 11.1752 13.3556 12.0714C13.3556 12.9676 13.8221 14.4286 14.927 14.4286C16.0319 14.4286 16.4985 12.9676 16.4985 12.0714ZM18.4628 12.0714C18.4628 15.8281 15.0253 16.4051 12.0297 16.4051H9.96722C6.97168 16.4051 3.53418 15.8281 3.53418 12.0714C3.53418 10.1931 4.67592 8.53571 6.67704 8.53571C7.4873 8.53571 8.27302 8.68304 9.07101 8.79353C9.7094 8.89174 10.3478 8.92857 10.9985 8.92857C11.6491 8.92857 12.2875 8.89174 12.9259 8.79353C13.7362 8.68304 14.5096 8.53571 15.3199 8.53571C17.321 8.53571 18.4628 10.1931 18.4628 12.0714ZM21.2128 9.91071C21.2128 8.1183 20.7217 6.41183 19.5431 5.02455C19.7641 4.36161 19.8746 3.66183 19.8746 2.96205C19.8746 2.04129 19.6659 1.12053 19.2485 0.285714C17.3333 0.285714 16.0933 1.10826 14.6324 2.25C13.5152 1.97991 12.3489 1.85714 11.1949 1.85714C9.91811 1.85714 8.64132 1.99219 7.40137 2.28683C5.92815 1.13281 4.6882 0.285714 2.74847 0.285714C2.33105 1.12053 2.12235 2.04129 2.12235 2.96205C2.12235 3.66183 2.23284 4.37388 2.45382 5.04911C1.27525 6.42411 0.78418 8.1183 0.78418 9.91071C0.78418 11.2734 0.919224 12.7344 1.54534 13.9743C3.22726 17.2891 7.95382 17.5714 11.1949 17.5714C14.3869 17.5714 18.8433 17.2522 20.4639 13.9743C21.0777 12.7221 21.2128 11.2734 21.2128 9.91071Z" fill="white"/>
</svg>
