<svg width="20" height="20" viewBox="0 0 20 20" fill="none" xmlns="http://www.w3.org/2000/svg">
<path d="M13.1398 10.1429C13.1398 11.8739 11.728 13.2857 9.99693 13.2857C8.2659 13.2857 6.85407 11.8739 6.85407 10.1429C6.85407 8.41183 8.2659 7 9.99693 7C11.728 7 13.1398 8.41183 13.1398 10.1429ZM14.834 10.1429C14.834 7.46652 12.6733 5.3058 9.99693 5.3058C7.32059 5.3058 5.15988 7.46652 5.15988 10.1429C5.15988 12.8192 7.32059 14.9799 9.99693 14.9799C12.6733 14.9799 14.834 12.8192 14.834 10.1429ZM16.1599 5.10938C16.1599 4.48326 15.6565 3.97991 15.0304 3.97991C14.4043 3.97991 13.9009 4.48326 13.9009 5.10938C13.9009 5.73549 14.4043 6.23884 15.0304 6.23884C15.6565 6.23884 16.1599 5.73549 16.1599 5.10938ZM9.99693 2.40848C11.3719 2.40848 14.3184 2.29799 15.5583 2.78906C15.988 2.96094 16.3072 3.16964 16.6387 3.50112C16.9701 3.83259 17.1789 4.15178 17.3507 4.58147C17.8418 5.82143 17.7313 8.76786 17.7313 10.1429C17.7313 11.5179 17.8418 14.4643 17.3507 15.7042C17.1789 16.1339 16.9701 16.4531 16.6387 16.7846C16.3072 17.1161 15.988 17.3248 15.5583 17.4967C14.3184 17.9877 11.3719 17.8772 9.99693 17.8772C8.62193 17.8772 5.6755 17.9877 4.43555 17.4967C4.00586 17.3248 3.68666 17.1161 3.35519 16.7846C3.02372 16.4531 2.81501 16.1339 2.64314 15.7042C2.15206 14.4643 2.26256 11.5179 2.26256 10.1429C2.26256 8.76786 2.15206 5.82143 2.64314 4.58147C2.81501 4.15178 3.02372 3.83259 3.35519 3.50112C3.68666 3.16964 4.00586 2.96094 4.43555 2.78906C5.6755 2.29799 8.62193 2.40848 9.99693 2.40848ZM19.4255 10.1429C19.4255 8.84152 19.4378 7.55245 19.3641 6.25112C19.2905 4.74107 18.9467 3.4029 17.8418 2.29799C16.7369 1.19308 15.3987 0.849329 13.8887 0.775669C12.5873 0.702008 11.2983 0.714285 9.99693 0.714285C8.69559 0.714285 7.40653 0.702008 6.10519 0.775669C4.59515 0.849329 3.25698 1.19308 2.15206 2.29799C1.04715 3.4029 0.703404 4.74107 0.629743 6.25112C0.556083 7.55245 0.568359 8.84152 0.568359 10.1429C0.568359 11.4442 0.556083 12.7333 0.629743 14.0346C0.703404 15.5446 1.04715 16.8828 2.15206 17.9877C3.25698 19.0926 4.59515 19.4364 6.10519 19.51C7.40653 19.5837 8.69559 19.5714 9.99693 19.5714C11.2983 19.5714 12.5873 19.5837 13.8887 19.51C15.3987 19.4364 16.7369 19.0926 17.8418 17.9877C18.9467 16.8828 19.2905 15.5446 19.3641 14.0346C19.4378 12.7333 19.4255 11.4442 19.4255 10.1429Z" fill="white"/>
</svg>
