<svg width="20" height="20" fill="none" xmlns="http://www.w3.org/2000/svg"><path d="M13.14 10.143a3.149 3.149 0 01-3.143 3.143 3.149 3.149 0 01-3.143-3.143A3.149 3.149 0 019.997 7a3.149 3.149 0 013.143 3.143zm1.694 0a4.83 4.83 0 00-4.837-4.837 4.83 4.83 0 00-4.837 4.837 4.83 4.83 0 004.837 4.837 4.83 4.83 0 004.837-4.837zm1.326-5.034c0-.626-.504-1.13-1.13-1.13-.626 0-1.13.504-1.13 1.13 0 .626.504 1.13 1.13 1.13.627 0 1.13-.504 1.13-1.13zm-6.163-2.7c1.375 0 4.321-.111 5.561.38.43.172.75.38 1.08.712.332.332.54.65.713 1.08.49 1.24.38 4.187.38 5.562s.11 4.321-.38 5.561c-.172.43-.38.75-.712 1.08-.332.332-.651.54-1.08.713-1.24.49-4.187.38-5.562.38s-4.321.11-5.561-.38a3.015 3.015 0 01-1.08-.712 3.015 3.015 0 01-.713-1.08c-.49-1.24-.38-4.187-.38-5.562s-.11-4.322.38-5.562c.172-.43.38-.748.712-1.08.332-.331.65-.54 1.08-.712 1.24-.491 4.187-.38 5.562-.38zm9.428 7.734c0-1.301.013-2.59-.06-3.892-.074-1.51-.418-2.848-1.523-3.953S15.399.849 13.889.776C12.587.702 11.299.714 9.997.714c-1.301 0-2.59-.012-3.892.062-1.51.073-2.848.417-3.953 1.522S.703 4.741.63 6.251C.556 7.552.568 8.841.568 10.143c0 1.301-.012 2.59.062 3.892.073 1.51.417 2.848 1.522 3.953s2.443 1.448 3.953 1.522c1.302.074 2.59.061 3.892.061 1.301 0 2.59.013 3.892-.061 1.51-.074 2.848-.417 3.953-1.522s1.449-2.443 1.522-3.953c.074-1.302.061-2.59.061-3.892z" fill="#fff"/></svg>