<svg width="22" height="18" fill="none" xmlns="http://www.w3.org/2000/svg"><path d="M8.641 12.071c0-.896-.466-2.357-1.571-2.357s-1.572 1.461-1.572 2.357c0 .897.467 2.358 1.572 2.358s1.57-1.461 1.57-2.359zm7.857 0c0-.896-.466-2.357-1.571-2.357s-1.571 1.461-1.571 2.357c0 .897.466 2.358 1.571 2.358s1.572-1.461 1.572-2.358zm1.965 0c0 3.757-3.438 4.334-6.433 4.334H9.967c-2.995 0-6.433-.577-6.433-4.334 0-1.878 1.142-3.535 3.143-3.535.81 0 1.596.147 2.394.258a12.61 12.61 0 001.928.135c.65 0 1.288-.037 1.927-.135.81-.111 1.584-.258 2.394-.258 2.001 0 3.143 1.657 3.143 3.535zm2.75-2.16c0-1.793-.491-3.5-1.67-4.886a6.534 6.534 0 00.332-2.063c0-.92-.21-1.841-.627-2.676-1.915 0-3.155.822-4.616 1.964a14.693 14.693 0 00-3.437-.393c-1.277 0-2.554.135-3.794.43C5.928 1.133 4.688.286 2.748.286a5.99 5.99 0 00-.626 2.676c0 .7.11 1.412.332 2.087C1.275 6.424.784 8.12.784 9.911c0 1.362.135 2.823.761 4.063 1.682 3.315 6.409 3.597 9.65 3.597 3.192 0 7.648-.319 9.269-3.597.614-1.252.749-2.7.749-4.063z" fill="#fff"/></svg>