<svg width="24" height="15" fill="none" xmlns="http://www.w3.org/2000/svg"><path d="M23.75 1.527s-.172-.491-1.24-.356l-3.535.024a.805.805 0 00-.467.074s-.209.11-.307.38c-.577 1.486-1.313 2.763-1.313 2.763-1.572 2.676-2.21 2.823-2.468 2.652-.601-.381-.442-1.547-.442-2.382 0-2.603.393-3.683-.773-3.965-.38-.086-.663-.148-1.658-.16-1.264-.012-2.332 0-2.934.295-.405.196-.712.638-.528.663.233.036.761.147 1.044.527 0 0 .307.504.356 1.609.135 3.057-.491 3.437-.491 3.437-.48.258-1.314-.172-2.542-2.7 0 0-.712-1.253-1.264-2.628a.903.903 0 00-.295-.393s-.22-.172-.54-.22L.99 1.17c-.515 0-.7.233-.7.233s-.184.196-.012.602C2.904 8.18 5.9 11.275 5.9 11.275s2.738 2.86 5.844 2.664h1.412c.43-.037.65-.27.65-.27s.197-.222.184-.627c-.024-1.89.86-2.173.86-2.173.86-.27 1.964 1.83 3.143 2.64 0 0 .896.614 1.571.479l3.143-.05c1.657-.012.871-1.387.871-1.387-.06-.11-.454-.957-2.344-2.713-1.965-1.83-1.707-1.534.675-4.702 1.449-1.927 2.026-3.106 1.841-3.61z" fill="#fff"/></svg>